<svg width="160" height="28" viewBox="0 0 160 28" fill="none" xmlns="http://www.w3.org/2000/svg">
<path d="M14.3916 16.3438C19.0407 16.3438 23.17 18.4921 25.7949 21.8281C25.8899 21.9489 25.9378 22.009 25.958 22.083C25.975 22.1452 25.975 22.221 25.958 22.2832C25.9377 22.3571 25.8898 22.4175 25.7949 22.5381C23.17 25.8725 19.0405 27.9999 14.3701 28C9.74267 28 5.61417 25.8726 2.98926 22.5381C2.89434 22.4175 2.84649 22.3571 2.82617 22.2832C2.80917 22.221 2.80919 22.1452 2.82617 22.083C2.84642 22.009 2.89424 21.9489 2.98926 21.8281C5.61409 18.4922 9.74272 16.3439 14.3916 16.3438ZM88.334 6.63086C90.9786 6.63087 93.8152 7.07316 96.3604 7.76367V10.6484C93.8223 9.89911 90.992 9.37794 88.334 9.37793H87.6338C85.3119 9.37796 83.7113 9.80127 82.6943 10.5664C81.6879 11.3238 81.2236 12.4392 81.2236 13.9004V14.0986C81.2237 15.5572 81.7062 16.6732 82.709 17.4316C83.7216 18.1973 85.2932 18.6201 87.5137 18.6201H88.2139C90.0206 18.6201 91.7551 18.3993 93.3447 18.0811V15.3535H87.1455V12.6055H96.3604V20.3818C93.6317 20.968 90.8508 21.3682 88.0537 21.3682H87.374C84.1542 21.3682 81.746 20.7268 80.1396 19.4863C78.5251 18.2395 77.7481 16.4086 77.748 14.0986V13.9004C77.7481 11.581 78.5153 9.74884 80.1592 8.50391C81.7935 7.26646 84.2663 6.63089 87.6338 6.63086H88.334ZM45.7119 18.4619H56.4893V21.209H42.416V6.78906H45.7119V18.4619ZM75.0342 9.53613H62.9277V12.6055H74.6572V15.3535H62.9277V18.4619H75.0342V21.209H59.6318V6.78906H75.0342V9.53613ZM115.444 9.53613H103.339V12.6055H115.067V15.3535H103.339V18.4619H115.444V21.209H100.043V6.78906H115.444V9.53613ZM133.295 17.2822V6.78906H136.531V21.209H132.928L121.875 10.7168V21.209H118.639V6.78906H122.242L133.295 17.2822ZM149.939 6.78906C152.866 6.78906 154.964 7.48337 156.331 8.7334C157.7 9.98573 158.307 11.7686 158.307 13.8809V14.0781C158.307 16.1795 157.716 17.9723 156.354 19.2373C154.995 20.5004 152.896 21.209 149.939 21.209H140.313V6.78906H149.939ZM14.3701 0C22.3455 0.000162488 28.7842 6.27298 28.7842 14C28.7842 16.4742 28.1315 18.7754 26.9756 20.7939C26.9056 20.9161 26.87 20.9773 26.8193 21.0029C26.7758 21.0248 26.7232 21.0285 26.6768 21.0137C26.6227 20.9964 26.5775 20.9408 26.4873 20.8291L14.8633 6.42285C14.7022 6.22317 14.6216 6.12316 14.5244 6.08691C14.4391 6.05512 14.3451 6.05512 14.2598 6.08691C14.1626 6.12315 14.082 6.22317 13.9209 6.42285L2.29688 20.8291C2.20672 20.9408 2.16146 20.9964 2.10742 21.0137C2.06099 21.0285 2.00839 21.0248 1.96484 21.0029C1.91417 20.9773 1.87857 20.9161 1.80859 20.7939C0.652684 18.7754 0.000980322 16.4742 0.000976562 14C0.000976562 6.27288 6.43914 0 14.3701 0ZM143.609 18.4619H149.88C151.722 18.4619 152.945 18.0236 153.709 17.2773C154.472 16.5314 154.811 15.445 154.811 14.0781V13.8809C154.811 12.5344 154.473 11.458 153.71 10.7168C152.946 9.9749 151.722 9.53613 149.88 9.53613H143.609V18.4619Z" fill="white"/>
</svg>
